<svg version="1.1" viewBox="0.0 0.0 400.0 250.0" fill="none" stroke="none" stroke-linecap="square" stroke-miterlimit="10" xmlns:xlink="http://www.w3.org/1999/xlink" xmlns="http://www.w3.org/2000/svg"><clipPath id="p.0"><path d="m0 0l400.0 0l0 250.0l-400.0 0l0 -250.0z" clip-rule="nonzero"/></clipPath><g clip-path="url(#p.0)"><path fill="#000000" fill-opacity="0.0" d="m0 0l400.0 0l0 250.0l-400.0 0z" fill-rule="evenodd"/><path fill="#000000" fill-opacity="0.0" d="m2.4986877 11.950131l141.41733 0l0 118.67717l-141.41733 0z" fill-rule="evenodd"/><path fill="#000000" d="m105.09244 99.10451l-31.234375 0l4.4375 -20.921875q1.953125 -9.140625 1.421875 -11.390625q-0.53125 -2.265625 -3.9375 -2.265625q-3.859375 0 -5.484375 2.75q-1.609375 2.734375 -3.5625 11.859375l-11.859375 55.8125q-1.859375 8.765625 -1.390625 11.4375q0.46875 2.671875 4.109375 2.671875q3.484375 0 5.125 -2.671875q1.65625 -2.671875 3.75 -12.546875l3.203125 -15.0625l31.234375 0l-0.984375 4.671875q-3.96875 18.625 -8.265625 26.421875q-4.28125 7.796875 -14.546875 13.671875q-10.25 5.859375 -23.46875 5.859375q-13.71875 0 -21.578125 -4.96875q-7.84375 -4.984375 -8.875 -13.78125q-1.03125 -8.796875 2.71875 -26.453125l7.46875 -35.109375q2.765625 -12.984375 5.03125 -19.484375q2.28125 -6.500004 7.96875 -12.500004q5.6875 -6.015625 14.25 -9.46875q8.578125 -3.453125 18.734375 -3.453125q13.8125 0 21.65625 5.34375q7.84375 5.34375 8.96875 13.328125q1.125 7.968754 -2.46875 24.828129l-2.421875 11.421875z" fill-rule="nonzero"/><path fill="#000000" fill-opacity="0.0" d="m68.47507 70.89698l141.41733 0l0 118.67716l-141.41733 0z" fill-rule="evenodd"/><path fill="#000000" d="m171.06882 158.05136l-31.234375 0l4.4375 -20.921875q1.953125 -9.140633 1.421875 -11.390633q-0.53125 -2.265625 -3.9375 -2.265625q-3.859375 0 -5.484375 2.75q-1.609375 2.7343826 -3.5625 11.859383l-11.859375 55.8125q-1.859375 8.765625 -1.390625 11.4375q0.46875 2.671875 4.109375 2.671875q3.484375 0 5.125 -2.671875q1.65625 -2.671875 3.75 -12.546875l3.203125 -15.0625l31.234375 0l-0.984375 4.671875q-3.96875 18.625 -8.265625 26.421875q-4.28125 7.796875 -14.546875 13.671875q-10.25 5.859375 -23.46875 5.859375q-13.71875 0 -21.578125 -4.96875q-7.84375 -4.984375 -8.875 -13.78125q-1.03125 -8.796875 2.71875 -26.453125l7.46875 -35.109375q2.765625 -12.984375 5.03125 -19.484375q2.28125 -6.5000076 7.96875 -12.500008q5.6875 -6.015625 14.25 -9.46875q8.578125 -3.453125 18.734375 -3.453125q13.8125 0 21.65625 5.34375q7.84375 5.34375 8.96875 13.328125q1.125 7.9687576 -2.46875 24.828133l-2.421875 11.421875z" fill-rule="nonzero"/><path fill="#000000" fill-opacity="0.0" d="m99.99475 16.041338l269.7638 0l0 65.6693l-269.7638 0z" fill-rule="evenodd"/><path fill="#000000" d="m136.63538 48.346333l-1.9375 6.34375q4.640625 -6.8125 10.828125 -7.21875l-3.625 17.031246q-4.046875 0 -6.171875 1.09375q-2.109375 1.09375 -2.96875 3.046875q-0.84375 1.9375 -2.34375 8.984375l-4.0625 19.09375l-14.734375 0l10.28125 -48.374996l14.734375 0zm29.423355 -10.640625l-1.640625 7.6875l-15.171875 0l1.640625 -7.6875l15.171875 0zm-2.265625 10.640625l-10.28125 48.374996l-15.171875 0l10.28125 -48.374996l15.171875 0zm22.184647 -6.453125l-1.625 7.625l3.96875 0l-1.625 7.65625l-3.96875 0l-5.5 25.874996q-1.015625 4.78125 -0.640625 5.328125q0.375 0.546875 3.984375 0.546875l-1.65625 7.796875l-5.9375 0q-5.03125 0 -7.109375 -0.421875q-2.0625 -0.421875 -3.375 -1.921875q-1.3125 -1.515625 -1.296875 -3.46875q0.015625 -1.953125 1.546875 -9.171875l5.21875 -24.562496l-3.171875 0l1.625 -7.65625l3.171875 0l1.625 -7.625l14.765625 0zm22.746826 0l-1.625 7.625l3.96875 0l-1.625 7.65625l-3.96875 0l-5.5 25.874996q-1.015625 4.78125 -0.640625 5.328125q0.375 0.546875 3.984375 0.546875l-1.65625 7.796875l-5.9375 0q-5.03125 0 -7.109375 -0.421875q-2.0625 -0.421875 -3.375 -1.921875q-1.3125 -1.515625 -1.296875 -3.46875q0.015625 -1.953125 1.546875 -9.171875l5.21875 -24.562496l-3.171875 0l1.625 -7.65625l3.171875 0l1.625 -7.625l14.765625 0zm33.871826 31.499996l-19.0625 0l-2.21875 10.453125q-0.6875 3.28125 -0.421875 4.234375q0.265625 0.953125 1.609375 0.953125q1.6875 0 2.515625 -1.25q0.828125 -1.265625 1.59375 -4.875l1.359375 -6.375l13.96875 0l-0.765625 3.5625q-0.953125 4.484375 -2.03125 6.890625q-1.078125 2.40625 -3.75 5.140625q-2.65625 2.734375 -6.140625 4.109375q-3.46875 1.359375 -8.28125 1.359375q-4.65625 0 -7.953125 -1.34375q-3.28125 -1.359375 -4.765625 -3.703125q-1.484375 -2.359375 -1.65625 -5.171875q-0.15625 -2.828125 0.984375 -8.234375l3.0 -14.09375q1.34375 -6.343746 3.828125 -9.999996q2.5 -3.671875 6.8125 -5.625q4.328125 -1.953125 9.390625 -1.953125q6.1875 0 9.71875 2.359375q3.53125 2.34375 4.328125 6.234375q0.796875 3.875 -0.6875 10.906246l-1.375 6.421875zm-13.09375 -7.875l0.765625 -3.5312462q0.796875 -3.765625 0.609375 -4.859375q-0.171875 -1.09375 -1.40625 -1.09375q-1.53125 0 -2.09375 0.9375q-0.546875 0.921875 -1.40625 5.015625l-0.765625 3.5312462l4.296875 0zm37.96341 -17.171871l-1.9375 6.34375q4.640625 -6.8125 10.828125 -7.21875l-3.625 17.031246q-4.046875 0 -6.171875 1.09375q-2.109375 1.09375 -2.96875 3.046875q-0.84375 1.9375 -2.34375 8.984375l-4.0625 19.09375l-14.73436 0l10.28125 -48.374996l14.73436 0z" fill-rule="nonzero"/><path fill="#000000" fill-opacity="0.0" d="m166.59317 74.80938l269.7638 0l0 65.66929l-269.7638 0z" fill-rule="evenodd"/><path fill="#000000" d="m197.6713 125.84875l-13.8125 0l0.6875 -3.234375q1.203125 -5.625 3.140625 -8.65625q1.9375 -3.046875 6.328125 -5.375q4.40625 -2.34375 10.640625 -2.34375q7.46875 0 10.6875 2.640625q3.234375 2.640625 3.171875 6.5q-0.046875 3.84375 -2.59375 15.828133l-5.15625 24.28125l-14.328125 0l0.90625 -4.296875q-1.890625 2.578125 -4.296875 3.875q-2.40625 1.296875 -5.359375 1.296875q-3.859375 0 -6.625 -2.171875q-2.765625 -2.171875 -1.203125 -9.5l0.84375 -3.96875q1.15625 -5.421875 3.28125 -7.390625q2.125 -1.96875 9.46875 -4.59375q7.859375 -2.8437576 8.578125 -3.8281326q0.71875 -0.984375 1.375 -4.015625q0.796875 -3.796875 0.46875 -4.9375q-0.328125 -1.15625 -1.625 -1.15625q-1.5 0 -2.078125 0.96875q-0.5625 0.96875 -1.421875 5.015625l-1.078125 5.0625zm3.265625 6.6406326q-4.078125 2.59375 -5.03125 4.34375q-0.9375 1.734375 -1.625 5.015625q-0.8125 3.765625 -0.546875 4.859375q0.265625 1.09375 1.734375 1.09375q1.375 0 1.96875 -0.859375q0.609375 -0.859375 1.375 -4.5l2.125 -9.953125zm42.0885 -31.828133l-1.625 7.625l3.96875 0l-1.625 7.65625l-3.96875 0l-5.5 25.875008q-1.015625 4.78125 -0.640625 5.328125q0.375 0.546875 3.984375 0.546875l-1.65625 7.796875l-5.9375 0q-5.03125 0 -7.109375 -0.421875q-2.0625 -0.421875 -3.375 -1.921875q-1.3125 -1.515625 -1.296875 -3.46875q0.015625 -1.953125 1.546875 -9.171875l5.21875 -24.562508l-3.171875 0l1.625 -7.65625l3.171875 0l1.625 -7.625l14.765625 0zm35.5437 23.4375l-2.515625 11.859383q-1.390625 6.515625 -2.703125 9.5625q-1.296875 3.046875 -4.015625 5.6875q-2.703125 2.640625 -6.34375 3.90625q-3.640625 1.25 -8.015625 1.25q-4.875 0 -8.046875 -1.078125q-3.15625 -1.078125 -4.578125 -3.234375q-1.40625 -2.171875 -1.5625 -5.25q-0.140625 -3.09375 1.171875 -9.25l2.640625 -12.390633q1.421875 -6.75 3.6875 -10.53125q2.265625 -3.796875 6.546875 -6.09375q4.28125 -2.296875 10.1875 -2.296875q4.953125 0 8.1875 1.484375q3.25 1.46875 4.671875 3.84375q1.421875 2.359375 1.59375 4.875q0.1875 2.515625 -0.90625 7.65625zm-13.9375 -3.640625q0.78125 -3.71875 0.578125 -4.6875q-0.203125 -0.96875 -1.515625 -0.96875q-1.296875 0 -1.9375 0.96875q-0.640625 0.96875 -1.421875 4.6875l-4.640625 21.828133q-0.734375 3.4375 -0.515625 4.484375q0.21875 1.03125 1.484375 1.03125q1.3125 0 1.9375 -0.953125q0.625 -0.953125 1.28125 -4.078125l4.75 -22.312508zm39.83844 -23.984375l-12.546875 59.015633l-15.171875 0l12.546875 -59.015633l15.171875 0zm32.71588 27.625l-2.515625 11.859383q-1.390625 6.515625 -2.703125 9.5625q-1.296875 3.046875 -4.015625 5.6875q-2.703125 2.640625 -6.34375 3.90625q-3.640625 1.25 -8.015625 1.25q-4.875 0 -8.046875 -1.078125q-3.15625 -1.078125 -4.578125 -3.234375q-1.40625 -2.171875 -1.5625 -5.25q-0.140625 -3.09375 1.171875 -9.25l2.640625 -12.390633q1.421875 -6.75 3.6875 -10.53125q2.265625 -3.796875 6.546875 -6.09375q4.28125 -2.296875 10.1875 -2.296875q4.953125 0 8.1875 1.484375q3.25 1.46875 4.671875 3.84375q1.421875 2.359375 1.59375 4.875q0.1875 2.515625 -0.90625 7.65625zm-13.9375 -3.640625q0.78125 -3.71875 0.578125 -4.6875q-0.203125 -0.96875 -1.515625 -0.96875q-1.296875 0 -1.9375 0.96875q-0.640625 0.96875 -1.421875 4.6875l-4.640625 21.828133q-0.734375 3.4375 -0.515625 4.484375q0.21875 1.03125 1.484375 1.03125q1.3125 0 1.9375 -0.953125q0.625 -0.953125 1.28125 -4.078125l4.75 -22.312508zm55.86969 -13.34375l-7.921875 37.250008q-1.59375 7.546875 -2.421875 9.765625q-0.8125 2.203125 -3.453125 4.65625q-2.625 2.46875 -6.6875 3.75q-4.046875 1.296875 -9.765625 1.296875q-7.046875 0 -10.8125 -2.390625q-3.75 -2.375 -2.390625 -9.375l14.296875 0q-0.6875 3.203125 1.640625 3.203125q1.671875 0 2.421875 -0.984375q0.765625 -0.984375 1.421875 -4.125l0.78125 -3.640625q-2.25 1.71875 -4.53125 2.59375q-2.28125 0.875 -4.578125 0.875q-3.984375 0 -6.21875 -1.609375q-2.21875 -1.609375 -2.625 -4.203125q-0.390625 -2.609375 0.640625 -7.421875l3.734375 -17.578133q1.46875 -6.890625 4.578125 -9.90625q3.125 -3.03125 8.203125 -3.03125q2.765625 0 4.796875 1.140625q2.03125 1.125 3.359375 3.375l1.8125 -3.640625l13.71875 0zm-17.484375 12.828125q0.703125 -3.3125 0.5 -4.21875q-0.1875 -0.921875 -1.5 -0.921875q-1.28125 0 -2.03125 1.046875q-0.734375 1.03125 -1.375 4.09375l-3.46875 16.265633q-0.6875 3.234375 -0.5 4.203125q0.203125 0.96875 1.46875 0.96875q1.46875 0 2.15625 -1.15625q0.6875 -1.171875 1.5625 -5.296875l3.1875 -14.984383z" fill-rule="nonzero"/></g></svg>